
<svg xmlns="http://www.w3.org/2000/svg" aria-hidden="true" style="position:absolute;width:0;height:0;overflow:hidden">
  <defs>
    <symbol id="icon-burger-menu" viewBox="0 0 46 32">
      <path stroke-linecap="round" stroke-width="3.429" d="M8.671 5.074H44M8.671 24.468H44M19.603 14.771h24.398"/>
    </symbol>
    <symbol id="icon-user" viewBox="0 0 32 32">
      <path d="M16 5.333a5.332 5.332 0 1 1 0 10.665 5.332 5.332 0 0 1 0-10.665zm0 21.334s10.667 0 10.667-2.667c0-3.2-5.2-6.667-10.667-6.667S5.333 20.8 5.333 24C5.333 26.667 16 26.667 16 26.667z"/>
    </symbol>
    <symbol id="icon-plus" viewBox="0 0 32 32">
      <path stroke-linecap="round" stroke-linejoin="round" stroke-width="2.4" d="M16 6.667v18.667M6.667 16h18.667"/>
    </symbol>
    <symbol id="icon-united-kingdom" viewBox="0 0 32 32">
      <path fill="#f0f0f0" d="M16 32c8.837 0 16-7.163 16-16S24.837 0 16 0 0 7.163 0 16s7.163 16 16 16z" style="fill:var(--color1, #f0f0f0)"/>
      <path fill="#0052b4" d="M3.308 6.259a15.942 15.942 0 0 0-2.756 5.567h8.324L3.309 6.259zM31.449 11.826a15.959 15.959 0 0 0-2.756-5.567l-5.567 5.567h8.323zM.551 20.174a15.959 15.959 0 0 0 2.756 5.567l5.567-5.567H.551zM25.741 3.308A15.942 15.942 0 0 0 20.174.552v8.324l5.567-5.567zM6.259 28.692a15.942 15.942 0 0 0 5.567 2.756v-8.323l-5.567 5.567zM11.826.551a15.959 15.959 0 0 0-5.567 2.756l5.567 5.567V.551zM20.174 31.449a15.959 15.959 0 0 0 5.567-2.756l-5.567-5.567v8.323zM23.125 20.174l5.567 5.567a15.942 15.942 0 0 0 2.756-5.567h-8.323z" style="fill:var(--color2, #0052b4)"/>
      <path fill="#d80027" d="M31.865 13.913H18.087V.135a16.15 16.15 0 0 0-4.174 0v13.778H.135a16.15 16.15 0 0 0 0 4.174h13.778v13.778a16.15 16.15 0 0 0 4.174 0V18.087h13.778a16.15 16.15 0 0 0 0-4.174z" style="fill:var(--color3, #d80027)"/>
      <path fill="#d80027" d="m20.174 20.174 7.14 7.14c.328-.328.642-.672.941-1.027l-6.113-6.113h-1.968zM11.826 20.174l-7.14 7.14c.328.328.671.642 1.027.941l6.113-6.113v-1.967zM11.826 11.826l-7.14-7.14c-.328.328-.642.671-.941 1.027l6.113 6.113h1.968zM20.174 11.826l7.14-7.14a15.753 15.753 0 0 0-1.027-.94l-6.113 6.113v1.968z" style="fill:var(--color3, #d80027)"/>
    </symbol>
    <symbol id="icon-ukraine" viewBox="0 0 32 32">
      <path fill="#ffda44" d="M16 32c8.837 0 16-7.163 16-16S24.837 0 16 0 0 7.163 0 16s7.163 16 16 16z" style="fill:var(--color4, #ffda44)"/>
      <path fill="#338af3" d="M0 16C0 7.164 7.163 0 16 0s16 7.163 16 16z" style="fill:var(--color5, #338af3)"/>
    </symbol>
    <symbol id="icon-trash" viewBox="0 0 32 32">
      <path stroke-linecap="round" stroke-linejoin="round" stroke-width="2.88" d="M12 4h8m-6.667 10v6.667M18.667 14v6.667M4 8h24m-2.667 0-.935 14.026c-.14 2.104-.21 3.156-.665 3.954a4.007 4.007 0 0 1-1.731 1.62c-.826.4-1.881.4-3.99.4h-4.025c-2.109 0-3.163 0-3.99-.4a3.996 3.996 0 0 1-1.731-1.62c-.455-.798-.525-1.85-.665-3.954L6.666 8"/>
    </symbol>
    <symbol id="icon-pencil" viewBox="0 0 32 32">
      <path stroke-linecap="round" stroke-linejoin="round" stroke-width="2.88" d="M3.835 24.154c.061-.551.092-.827.175-1.085a2.68 2.68 0 0 1 .311-.647c.149-.226.345-.422.737-.814L22.666 4a3.77 3.77 0 1 1 5.333 5.333L10.391 26.941c-.392.392-.588.588-.814.737a2.68 2.68 0 0 1-.647.311c-.258.084-.533.114-1.085.175l-4.513.501.501-4.512z"/>
    </symbol>
    <symbol id="icon-arrow-right" viewBox="0 0 32 32">
      <path stroke-linecap="round" stroke-linejoin="round" stroke-width="2.667" d="M1.333 15.556h28.444m.001 0-7.111-7.111m7.111 7.111-7.111 7.111"/>
    </symbol>
    <symbol id="icon-craftwork" viewBox="0 0 32 32">
      <path fill="#85aa9f" d="M32 16c0 8.837-7.163 16-16 16S0 24.837 0 16 7.163 0 16 0s16 7.163 16 16z" style="fill:var(--color6, #85aa9f)"/>
      <path fill="#fcfcfc" d="M15.956 14.815c4.696-3.542 4.904-5.689 0-9.482-4.997 3.873-4.353 5.927 0 9.482zm-1.141 1.23c-3.542-4.696-5.689-4.904-9.482 0 3.873 4.997 5.927 4.353 9.482 0zm11.851 0c-3.542-4.696-5.689-4.904-9.482 0 3.873 4.997 5.927 4.353 9.482 0zm-10.71 10.621c4.696-3.542 4.904-5.689 0-9.482-4.997 3.873-4.353 5.927 0 9.482z" style="fill:var(--color7, #fcfcfc)"/>
    </symbol>
    <symbol id="icon-user1" viewBox="0 0 32 32">
      <path d="M18 22.082v-1.649c2.203-1.241 4-4.337 4-7.432 0-4.971 0-9-6-9s-6 4.029-6 9c0 3.096 1.797 6.191 4 7.432v1.649C7.216 22.637 2 25.97 2 30h28c0-4.03-5.216-7.364-12-7.918z"/>
    </symbol>
    <symbol id="icon-github" viewBox="0 0 32 32">
      <path d="M16 .395c-8.836 0-16 7.163-16 16 0 7.069 4.585 13.067 10.942 15.182.8.148 1.094-.347 1.094-.77 0-.381-.015-1.642-.022-2.979-4.452.968-5.391-1.888-5.391-1.888-.728-1.849-1.776-2.341-1.776-2.341-1.452-.993.11-.973.11-.973 1.606.113 2.452 1.649 2.452 1.649 1.427 2.446 3.743 1.739 4.656 1.33.143-1.034.558-1.74 1.016-2.14-3.554-.404-7.29-1.777-7.29-7.907 0-1.747.625-3.174 1.649-4.295-.166-.403-.714-2.03.155-4.234 0 0 1.344-.43 4.401 1.64a15.353 15.353 0 0 1 4.005-.539c1.359.006 2.729.184 4.008.539 3.054-2.07 4.395-1.64 4.395-1.64.871 2.204.323 3.831.157 4.234 1.026 1.12 1.647 2.548 1.647 4.295 0 6.145-3.743 7.498-7.306 7.895.574.497 1.085 1.47 1.085 2.963 0 2.141-.019 3.864-.019 4.391 0 .426.288.925 1.099.768C27.421 29.457 32 23.462 32 16.395c0-8.837-7.164-16-16-16z"/>
    </symbol>
  </defs>
</svg>